<?xml version="1.0" encoding="UTF-8"?>
<svg width="14px" height="16px" viewBox="0 0 14 16" version="1.1" xmlns="http://www.w3.org/2000/svg" xmlns:xlink="http://www.w3.org/1999/xlink">
    <title>可视化编辑器logo</title>
    <g id="可视化编辑器" stroke="none" stroke-width="1" fill="none" fill-rule="evenodd">
        <g id="图层" transform="translate(-673.000000, -8.000000)" fill-rule="nonzero">
            <g id="可视化编辑器logo" transform="translate(673.000000, 8.000000)">
                <path d="M7.05445374,0 C7.12598877,0 7.19752379,0.0165080821 7.25988765,0.0495242462 L7.25988765,0.0495242462 L7.26355612,0.0513584776 L13.7218847,3.83354351 C13.890634,3.95827124 13.9768428,4.11051244 13.9768428,4.27926172 L13.9768428,4.27926172 L13.9603347,11.7922733 C13.9603347,11.8528029 13.9566663,11.9041614 13.9419924,11.9500172 L13.9419924,11.9500172 L13.9419924,12.0032099 L13.9089763,12.043563 L13.9089763,12.2361573 L13.6943712,12.2544996 C13.5678092,12.3260346 12.7424051,12.7974321 7.23787688,15.928465 L7.23787688,15.928465 C7.20486071,15.9468073 7.09480683,16 6.97925026,16 C6.85819099,16 6.74446865,15.9413046 6.73162903,15.9339677 L6.73162903,15.9339677 L6.72796056,15.9321334 L0.251289694,12.1004242 C0.0843746418,11.972028 0,11.8252895 0,11.6565402 L0,11.6565402 L0.0495242462,4.20956093 C0.0495242462,4.0206351 0.159578127,3.8390462 0.322824716,3.75650579 L0.322824716,3.75650579 L6.79215866,0.0715350224 C6.88753869,0.0220107761 6.9700791,0 7.05445374,0 Z M12.9533417,5.16886392 L7.51668004,8.26504643 L7.53135389,14.5692996 L12.9386679,11.4877909 L12.9533417,5.16886392 Z M11.446962,10.0440674 L12.6239087,10.7235779 L12.2239087,11.4163982 L11.046962,10.7368877 L11.446962,10.0440674 Z M10.0073639,9.21291504 L11.1446671,9.86953735 L10.7446671,10.5623577 L9.60736387,9.90573536 L10.0073639,9.21291504 Z M8.39916992,8.28442383 L9.72484846,9.04980469 L9.32484846,9.74262501 L7.99916992,8.97724415 L8.39916992,8.28442383 Z M7.04344835,1.11704689 L1.60678666,4.21506362 L7.01410065,7.36994153 L12.4507624,4.27375903 L7.04344835,1.11704689 Z M7.41192627,5.2779541 L7.41192627,6.6369751 L6.61192627,6.6369751 L6.61192627,5.2779541 L7.41192627,5.2779541 Z M7.41192627,3.61564941 L7.41192627,4.92889404 L6.61192627,4.92889404 L6.61192627,3.61564941 L7.41192627,3.61564941 Z M7.41192627,1.75866699 L7.41192627,3.28942871 L6.61192627,3.28942871 L6.61192627,1.75866699 L7.41192627,1.75866699 Z" id="形状" fill="#FFFFFF"></path>
                <polygon id="矩形" fill="#13A3A7" points="1 6.45150781 6 9.45150781 6 13.3251953 1 10.3251953"></polygon>
            </g>
        </g>
    </g>
</svg>